<?xml version="1.0" encoding="UTF-8"?>
<!-- Created with Inkscape (http://www.inkscape.org/) -->
<svg width="1080" height="900" version="1.1" viewBox="0 0 1080 900" xmlns="http://www.w3.org/2000/svg" xmlns:cc="http://creativecommons.org/ns#" xmlns:dc="http://purl.org/dc/elements/1.1/" xmlns:rdf="http://www.w3.org/1999/02/22-rdf-syntax-ns#">
 <metadata>
  <rdf:RDF>
   <cc:Work rdf:about="">
    <dc:format>image/svg+xml</dc:format>
    <dc:type rdf:resource="http://purl.org/dc/dcmitype/StillImage"/>
    <dc:title/>
   </cc:Work>
  </rdf:RDF>
 </metadata>
 <defs>
  <filter id="filter2287" color-interpolation-filters="sRGB">
   <feComponentTransfer result="component">
    <feFuncR amplitude="0.37" exponent="1.87166" type="gamma"/>
    <feFuncG amplitude="0.37" exponent="1.87166" type="gamma"/>
    <feFuncB amplitude="0.37" exponent="1.87166" type="gamma"/>
   </feComponentTransfer>
  </filter>
  <filter id="filter2325" color-interpolation-filters="sRGB">
   <feGaussianBlur result="blur" stdDeviation="2 2"/>
  </filter>
 </defs>
 <rect y="-180" width="1080" height="1080" stroke-width="1.0321"/>
 <g transform="translate(0,-180)" filter="url(#filter2325)">
  <path d="m211.29 524.5c-33.072 0.18003-66.621 9.9334-100.64 29.262l-113.89 64.697v112l134.89 352.78h133.95l63.955-36.332c43.754-24.856 75.936-57.84 96.547-98.953 20.697-41.751 28.756-88.377 24.174-139.88-4.8346-51.946-22.658-105.04-53.473-159.28-22.479-39.571-49.176-69.983-80.092-91.234-30.576-21.445-63.512-32.433-98.809-32.965-2.2006-0.0731-4.4046-0.1038-6.6094-0.0918zm2.623 105.02c10.354 0.0882 20.457 1.8812 30.311 5.3809 28.411 9.7362 52.593 32.167 72.547 67.291 19.196 33.791 31.072 67.33 35.625 100.62 4.3008 32.843 0.52563 62.921-11.324 90.236-11.763 26.678-31.551 47.917-59.363 63.717l-80.387 45.664-120.16-314.59 70.721-40.174c21.591-12.265 42.269-18.313 62.035-18.145z" fill="#333"/>
  <g transform="matrix(12.719 -7.2255 9.4716 16.673 105.25 289.98)" filter="url(#filter2287)" aria-label="DF">
   <path d="m15.502 17.3-1.48 7.4h13l-1.08 5.2h-12.92l-2.04 10.2h-6.52l5.6-28h21.16l-1.08 5.2z" fill="#c32026"/>
  </g>
 </g>
</svg>
